<svg width="332" height="308" viewBox="0 0 332 308" fill="none" xmlns="http://www.w3.org/2000/svg">
<rect width="332" height="308" fill="#E5E5E5"/>
<g id="HelsinkJS_logo">
<rect width="332" height="308" fill="white"/>
<g id="Group">
<g id="Group_2">
<path id="Vector" d="M332 0H0V308H332V0Z" fill="#F7DF1E"/>
<g id="Group_3">
<path id="Vector_2" d="M265.357 167.955H227.918L227.787 168.086L224.776 172.141V174.757H265.357V167.955Z" fill="black"/>
<path id="Vector_3" d="M265.357 154.09H236.427L232.369 166.778H265.357V154.09Z" fill="black"/>
<path id="Vector_4" d="M264.964 175.803H261.823H255.539H252.267L255.539 179.466V220.539L253.052 222.894H255.539H261.823H264.31L261.823 220.539V179.466L264.964 175.803Z" fill="black"/>
<path id="Vector_5" d="M245.721 175.803H242.449H236.165H233.023L236.165 179.466V220.539L233.809 222.894H236.165H242.449H244.936L242.449 220.539V179.466L245.721 175.803Z" fill="black"/>
<path id="Vector_6" d="M94.3948 154.09H66.6429V166.778H98.5837L94.3948 154.09Z" fill="black"/>
<path id="Vector_7" d="M98.5838 234.012H269.415L265.357 226.818H94.3948H87.0641H66.6429L62.4539 234.012H82.8751H98.5838Z" fill="black"/>
<path id="Vector_8" d="M94.3948 236.759H87.0641H54.2068V242.384H82.8751H98.5837H277.793V236.759H94.3948Z" fill="black"/>
<path id="Vector_9" d="M105.653 172.141L102.642 168.086L102.511 167.955H66.6429V174.757H105.653V172.141Z" fill="black"/>
<path id="Vector_10" d="M97.6674 175.803H94.3948H88.2422H84.9696L88.2422 179.466V220.539L85.755 222.894H88.2422H94.3948H96.882L94.3948 220.539V179.466L97.6674 175.803Z" fill="black"/>
<path id="Vector_11" d="M79.4716 175.803H76.1989H69.9155H66.7738L69.9155 179.466V220.539L67.4283 222.894H69.9155H76.1989H78.6861L76.1989 220.539V179.466L79.4716 175.803Z" fill="black"/>
<path id="Vector_12" d="M214.435 222.894H216.791H223.467H225.955L223.467 220.147V174.757V171.879L226.478 167.955H218.624H213.911L216.791 171.879V220.147L214.435 222.894Z" fill="black"/>
<path id="Vector_13" d="M206.057 167.955H193.49L196.37 171.879V220.147L193.883 222.894H196.37H203.046H205.533L203.046 220.147V171.879L206.057 167.955Z" fill="black"/>
<path id="Vector_14" d="M185.112 167.955H172.545L175.556 171.879V220.147L173.069 222.894H175.556H182.232H184.719L182.232 220.147V171.879L185.112 167.955Z" fill="black"/>
<path id="Vector_15" d="M157.884 167.955H145.317L148.197 171.879V220.147L145.71 222.894H148.197H154.873H157.36L154.873 220.147V171.879L157.884 167.955Z" fill="black"/>
<path id="Vector_16" d="M136.939 167.955H124.372L127.383 171.879V220.147L124.896 222.894H127.383H134.059H136.546L134.059 220.147V171.879L136.939 167.955Z" fill="black"/>
<path id="Vector_17" d="M116.518 167.955H110.103H103.951L106.962 171.879V174.757V220.147L104.474 222.894H106.962H113.638H116.125L113.638 220.147V171.879L116.518 167.955Z" fill="black"/>
<path id="Vector_18" d="M105.784 120.865H106.045L118.35 124.527V113.801H93.0857V124.658L105.653 120.865H105.784Z" fill="black"/>
<path id="Vector_19" d="M95.1802 151.473V149.511L101.856 147.549V137.346C101.856 135.123 103.689 133.422 105.784 133.422C108.009 133.422 109.711 135.253 109.711 137.346V145.195L118.35 142.579V130.414H93.0857V153.174H95.0493V151.473H95.1802Z" fill="black"/>
<path id="Vector_20" d="M117.696 129.236H118.35H118.481V128.844V125.835H118.35L105.784 122.173L93.0857 125.835V128.844V129.236H94.0021H117.696Z" fill="black"/>
<path id="Vector_21" d="M105.522 112.362H106.045H118.35C118.35 112.362 118.743 100.197 109.711 97.3197C109.056 97.0581 108.271 96.7965 107.354 96.7965L107.093 94.3112C107.093 93.9188 106.831 93.6572 106.569 93.6572V91.3026C106.962 91.041 107.093 90.5178 107.093 89.9946C107.093 89.2098 106.7 88.6865 106.176 88.5557V85.2856C106.176 85.1548 106.176 84.6315 105.914 84.6315C105.653 84.6315 105.653 85.1548 105.653 85.2856V88.5557C105.129 88.6865 104.736 89.3406 104.736 89.9946C104.736 90.5178 104.998 91.041 105.26 91.3026V93.6572C104.998 93.6572 104.736 93.9188 104.736 94.3112L104.344 96.7965C92.693 98.1046 93.0857 112.362 93.0857 112.362H105.522Z" fill="black"/>
<path id="Vector_22" d="M235.773 152.912H237.605V130.414H212.34V142.579L220.98 145.195V137.346C220.98 135.123 222.813 133.422 224.907 133.422C227.133 133.422 228.835 135.253 228.835 137.346V147.549L235.511 149.511V151.473V152.912H235.773Z" fill="black"/>
<path id="Vector_23" d="M225.038 120.865H225.3L237.605 124.527V113.801H212.34V124.658L224.776 120.865H225.038Z" fill="black"/>
<path id="Vector_24" d="M213.257 129.236H236.951H237.605H237.736V128.844V125.835H237.605L225.038 122.173L212.34 125.835V128.844V129.236H213.257Z" fill="black"/>
<path id="Vector_25" d="M224.776 112.362H225.3H237.605C237.605 112.362 237.998 100.197 228.965 97.3197C228.311 97.0581 227.525 96.7965 226.478 96.7965L226.216 94.3112C226.216 93.9188 225.955 93.6572 225.693 93.6572V91.3026C226.086 91.041 226.216 90.5178 226.216 89.9946C226.216 89.2098 225.824 88.6865 225.3 88.5557V85.2856C225.3 85.1548 225.3 84.6315 225.038 84.6315C224.776 84.6315 224.776 85.1548 224.776 85.2856V88.5557C224.253 88.6865 223.86 89.3406 223.86 89.9946C223.86 90.5178 224.122 91.041 224.384 91.3026V93.6572C224.122 93.6572 223.86 93.9188 223.86 94.3112L223.598 96.7965C211.948 98.1046 212.471 112.362 212.471 112.362H224.776Z" fill="black"/>
<path id="Vector_26" d="M165.476 95.8809H189.956V95.4884V92.4799V92.0875C189.956 92.0875 183.672 91.5643 165.476 91.5643C147.411 91.5643 140.997 92.0875 140.997 92.0875V92.4799V95.4884V95.8809H165.476Z" fill="black"/>
<path id="Vector_27" d="M165.476 89.8638C183.672 89.8638 189.956 90.387 189.956 90.387V89.9946V86.986V86.5936C189.956 86.5936 183.672 86.0704 165.476 86.0704C147.411 86.0704 140.997 86.5936 140.997 86.5936V86.986V89.9946V90.387C140.997 90.5178 147.281 89.8638 165.476 89.8638Z" fill="black"/>
<path id="Vector_28" d="M165.476 128.321L189.956 135.646L211.162 141.925V126.751H189.956V97.1889H140.997V126.882H119.79V141.925L140.997 135.646L165.476 128.321ZM168.88 126.751H160.895V112.755H168.88V126.751ZM175.032 102.421H183.018V110.4H175.032V102.421ZM175.032 112.755H183.018V126.751H175.032V112.755ZM164.953 102.029C167.309 102.029 169.273 103.991 169.273 106.345C169.273 108.7 167.309 110.662 164.953 110.662C162.596 110.662 160.633 108.7 160.633 106.345C160.502 103.991 162.466 102.029 164.953 102.029ZM146.888 102.421H154.873V110.4H146.888V102.421ZM146.888 112.755H154.873V126.751H146.888V112.755Z" fill="black"/>
<path id="Vector_29" d="M208.544 142.317L189.956 136.823L165.476 129.498L140.997 136.823L122.278 142.317L118.35 143.494L109.842 146.11L101.856 148.465L95.9656 150.165V151.473V152.912H99.7619H118.35H231.06H234.987V151.473V150.165L229.096 148.465L221.111 146.11L212.34 143.494L208.544 142.317Z" fill="black"/>
<path id="Vector_30" d="M141.128 82.9311C140.997 83.9775 140.997 84.7623 140.997 85.1548C140.997 85.1548 147.411 84.6315 165.476 84.6315C183.541 84.6315 189.825 85.1548 189.956 85.1548C189.956 84.7623 189.956 83.9775 189.825 82.9311H189.956C189.956 82.9311 190.61 59.5168 173.2 53.8921C171.629 53.2381 169.534 52.8457 166.916 52.7148V52.8457C166.916 52.9765 166.916 52.9765 166.785 53.1073L166.524 50.2295C166.524 49.8371 166.262 49.4447 165.738 49.4447V46.4362C166.131 46.0437 166.524 45.5205 166.524 44.8665C166.524 43.9508 166 43.166 165.345 43.0352V38.9802C165.345 38.7186 165.345 38.1954 165.084 38.1954C164.822 38.1954 164.822 38.8494 164.822 38.9802V43.166C164.167 43.2968 163.644 44.0816 163.644 44.9973C163.644 45.6513 163.906 46.3053 164.429 46.567V49.5755C164.036 49.5755 163.644 49.9679 163.644 50.3603L163.382 53.2381C163.382 53.2381 163.251 53.1073 163.251 52.9765C140.212 55.0694 140.997 82.9311 141.128 82.9311Z" fill="black"/>
<path id="Vector_31" d="M212.21 166.778H218.624H228.049H231.06L235.249 154.09H95.7038L99.8928 166.778H102.38H110.103H118.22H122.801H138.641H143.615H159.455H165.476H170.974H186.814H191.788H207.628H212.21Z" fill="black"/>
</g>
</g>
</g>
</g>
</svg>
