<?xml version="1.0" standalone="no"?>
<!DOCTYPE svg PUBLIC "-//W3C//DTD SVG 20010904//EN"
 "http://www.w3.org/TR/2001/REC-SVG-20010904/DTD/svg10.dtd">
<svg version="1.0" xmlns="http://www.w3.org/2000/svg" width="230.000000pt" height="230.000000pt" viewBox="0 0 230.000000 230.000000" preserveAspectRatio="xMidYMid meet">
<metadata>
Created by potrace 1.11, written by Peter Selinger 2001-2013
</metadata>
<g transform="translate(0.000000,230.000000) scale(0.100000,-0.100000)" fill="#000000" stroke="none">
<path d="M509 2113 c-61 -30 -67 -49 -69 -219 l0 -62 -45 -4 c-42 -3 -45 -2
-46 22 -2 63 -6 80 -21 92 -8 7 -18 20 -21 28 -4 11 -6 9 -6 -5 -1 -11 -10
-26 -21 -33 -22 -14 -26 -38 -7 -45 9 -4 9 -6 0 -6 -9 -1 -13 -23 -13 -76 l0
-75 -51 0 -52 0 7 -77 c3 -42 6 -102 6 -135 0 -40 4 -58 13 -58 9 0 11 19 9
71 -4 82 3 119 22 119 21 0 26 -23 26 -111 0 -56 4 -79 13 -79 9 0 11 19 9 71
-5 90 2 119 28 119 19 0 20 -7 20 -95 0 -78 3 -95 15 -95 12 0 15 19 15 110 0
110 0 110 24 110 l25 0 -2 -110 c-2 -92 0 -110 13 -110 12 0 14 15 12 86 -4
106 2 134 28 134 26 0 32 -28 28 -134 -2 -71 0 -86 12 -86 12 0 14 15 12 86
-5 120 0 134 43 134 l35 0 0 -110 c0 -91 3 -110 15 -110 12 0 15 19 15 110 l0
110 25 0 25 0 0 -110 c0 -91 3 -110 15 -110 12 0 15 19 15 110 l0 110 25 0
c14 0 24 -3 24 -7 -1 -5 -1 -54 0 -110 1 -84 4 -103 16 -103 12 0 15 17 15 96
0 86 2 95 18 92 14 -3 17 -17 20 -96 2 -73 6 -92 17 -92 12 0 15 18 15 90 0
74 3 92 16 97 26 10 35 -17 32 -105 -2 -58 0 -82 9 -82 8 0 13 30 17 88 2 48
6 107 8 132 l3 45 -52 3 -53 3 0 74 c0 62 -3 74 -17 78 -17 4 -17 5 0 6 23 1
21 15 -7 45 l-23 26 -27 -25 c-28 -26 -34 -45 -13 -45 8 0 8 -3 -2 -9 -8 -5
-12 -18 -8 -30 5 -19 1 -21 -39 -21 l-44 0 -1 63 c-1 121 -7 159 -27 186 -10
14 -28 28 -38 30 -10 2 -21 6 -24 10 -3 4 -17 1 -31 -6z m-19 -209 c0 -17 -22
-14 -28 4 -2 7 3 12 12 12 9 0 16 -7 16 -16z m58 4 c-6 -18 -28 -21 -28 -4 0
9 7 16 16 16 9 0 14 -5 12 -12z m52 -3 c0 -8 -7 -15 -15 -15 -8 0 -15 7 -15
15 0 8 7 15 15 15 8 0 15 -7 15 -15z m-273 -21 c-3 -3 -12 -4 -19 -1 -8 3 -5
6 6 6 11 1 17 -2 13 -5z m163 -29 c0 -16 -6 -25 -15 -25 -9 0 -15 9 -15 25 0
16 6 25 15 25 9 0 15 -9 15 -25z m60 0 c0 -16 -6 -25 -15 -25 -9 0 -15 9 -15
25 0 16 6 25 15 25 9 0 15 -9 15 -25z m50 0 c0 -16 -6 -25 -15 -25 -9 0 -15 9
-15 25 0 16 6 25 15 25 9 0 15 -9 15 -25z m-282 -77 c-5 -32 -28 -35 -28 -4 0
17 5 26 16 26 10 0 14 -7 12 -22z m460 -6 c2 -15 -2 -22 -12 -22 -11 0 -16 9
-16 26 0 31 23 28 28 -4z"></path>
<path d="M150 1435 c-11 -13 33 -15 383 -15 348 0 396 2 391 15 -5 13 -57 15
-384 15 -323 0 -379 -2 -390 -15z"></path>
<path d="M110 1400 c0 -7 148 -10 425 -10 277 0 425 3 425 10 0 7 -148 10
-425 10 -277 0 -425 -3 -425 -10z"></path>
<path d="M1671 1249 c-199 -39 -297 -240 -206 -424 36 -75 76 -105 252 -190
122 -60 155 -80 168 -104 50 -98 -48 -178 -183 -150 -47 9 -64 20 -109 65 -30
30 -56 54 -58 54 -4 0 -157 -89 -163 -95 -9 -9 32 -66 77 -109 190 -177 542
-143 642 62 35 72 33 188 -4 264 -45 93 -83 119 -365 250 -76 36 -100 111 -52
163 48 51 137 41 189 -22 l30 -36 77 50 c43 28 80 55 82 61 5 16 -86 111 -128
132 -38 19 -137 41 -179 39 -14 -1 -46 -5 -70 -10z"></path>
<path d="M1028 836 l-3 -404 -24 -26 c-20 -22 -33 -26 -77 -26 -45 0 -59 5
-88 31 -19 16 -38 39 -41 50 -4 10 -11 19 -17 19 -8 0 -153 -83 -167 -96 -11
-10 28 -71 75 -113 71 -65 132 -86 249 -86 76 0 99 5 145 26 69 33 106 69 139
139 l26 55 3 418 3 417 -110 0 -110 0 -3 -404z"></path>
</g>
</svg>
