<svg version="1.0" xmlns="http://www.w3.org/2000/svg" width="306.667" height="306.667" viewBox="0 0 230 230"><path d="M50.9 18.7c-6.1 3-6.7 4.9-6.9 21.9v6.2l-4.5.4c-4.2.3-4.5.2-4.6-2.2-.2-6.3-.6-8-2.1-9.2-.8-.7-1.8-2-2.1-2.8-.4-1.1-.6-.9-.6.5-.1 1.1-1 2.6-2.1 3.3-2.2 1.4-2.6 3.8-.7 4.5.9.4.9.6 0 .6-.9.1-1.3 2.3-1.3 7.6V57H15.7l.7 7.7c.3 4.2.6 10.2.6 13.5 0 4 .4 5.8 1.3 5.8s1.1-1.9.9-7.1c-.4-8.2.3-11.9 2.2-11.9 2.1 0 2.6 2.3 2.6 11.1 0 5.6.4 7.9 1.3 7.9s1.1-1.9.9-7.1c-.5-9 .2-11.9 2.8-11.9 1.9 0 2 .7 2 9.5 0 7.8.3 9.5 1.5 9.5S34 82.1 34 73c0-11 0-11 2.4-11h2.5l-.2 11c-.2 9.2 0 11 1.3 11 1.2 0 1.4-1.5 1.2-8.6-.4-10.6.2-13.4 2.8-13.4 2.6 0 3.2 2.8 2.8 13.4-.2 7.1 0 8.6 1.2 8.6s1.4-1.5 1.2-8.6c-.5-12 0-13.4 4.3-13.4H57v11c0 9.1.3 11 1.5 11S60 82.1 60 73V62h5v11c0 9.1.3 11 1.5 11S68 82.1 68 73V62h2.5c1.4 0 2.4.3 2.4.7-.1.5-.1 5.4 0 11 .1 8.4.4 10.3 1.6 10.3 1.2 0 1.5-1.7 1.5-9.6 0-8.6.2-9.5 1.8-9.2 1.4.3 1.7 1.7 2 9.6.2 7.3.6 9.2 1.7 9.2 1.2 0 1.5-1.8 1.5-9 0-7.4.3-9.2 1.6-9.7 2.6-1 3.5 1.7 3.2 10.5-.2 5.8 0 8.2.9 8.2.8 0 1.3-3 1.7-8.8.2-4.8.6-10.7.8-13.2l.3-4.5-5.2-.3-5.3-.3v-7.4c0-6.2-.3-7.4-1.7-7.8-1.7-.4-1.7-.5 0-.6 2.3-.1 2.1-1.5-.7-4.5L76.3 34l-2.7 2.5c-2.8 2.6-3.4 4.5-1.3 4.5.8 0 .8.3-.2.9-.8.5-1.2 1.8-.8 3 .5 1.9.1 2.1-3.9 2.1H63l-.1-6.3c-.1-12.1-.7-15.9-2.7-18.6-1-1.4-2.8-2.8-3.8-3-1-.2-2.1-.6-2.4-1-.3-.4-1.7-.1-3.1.6zM49 39.6c0 1.7-2.2 1.4-2.8-.4-.2-.7.3-1.2 1.2-1.2.9 0 1.6.7 1.6 1.6zm5.8-.4c-.6 1.8-2.8 2.1-2.8.4 0-.9.7-1.6 1.6-1.6.9 0 1.4.5 1.2 1.2zm5.2.3c0 .8-.7 1.5-1.5 1.5s-1.5-.7-1.5-1.5.7-1.5 1.5-1.5 1.5.7 1.5 1.5zm-27.3 2.1c-.3.3-1.2.4-1.9.1-.8-.3-.5-.6.6-.6 1.1-.1 1.7.2 1.3.5zM49 44.5c0 1.6-.6 2.5-1.5 2.5s-1.5-.9-1.5-2.5.6-2.5 1.5-2.5 1.5.9 1.5 2.5zm6 0c0 1.6-.6 2.5-1.5 2.5s-1.5-.9-1.5-2.5.6-2.5 1.5-2.5 1.5.9 1.5 2.5zm5 0c0 1.6-.6 2.5-1.5 2.5s-1.5-.9-1.5-2.5.6-2.5 1.5-2.5 1.5.9 1.5 2.5zm-28.2 7.7c-.5 3.2-2.8 3.5-2.8.4 0-1.7.5-2.6 1.6-2.6 1 0 1.4.7 1.2 2.2zm46 .6c.2 1.5-.2 2.2-1.2 2.2-1.1 0-1.6-.9-1.6-2.6 0-3.1 2.3-2.8 2.8.4zM15 86.5c-1.1 1.3 3.3 1.5 38.3 1.5 34.8 0 39.6-.2 39.1-1.5S86.7 85 54 85c-32.3 0-37.9.2-39 1.5zM11 90c0 .7 14.8 1 42.5 1S96 90.7 96 90s-14.8-1-42.5-1-42.5.3-42.5 1zM167.1 105.1c-19.9 3.9-29.7 24-20.6 42.4 3.6 7.5 7.6 10.5 25.2 19 12.2 6 15.5 8 16.8 10.4 5 9.8-4.8 17.8-18.3 15-4.7-.9-6.4-2-10.9-6.5-3-3-5.6-5.4-5.8-5.4-.4 0-15.7 8.9-16.3 9.5-.9.9 3.2 6.6 7.7 10.9 19 17.7 54.2 14.3 64.2-6.2 3.5-7.2 3.3-18.8-.4-26.4-4.5-9.3-8.3-11.9-36.5-25-7.6-3.6-10-11.1-5.2-16.3 4.8-5.1 13.7-4.1 18.9 2.2l3 3.6 7.7-5c4.3-2.8 8-5.5 8.2-6.1.5-1.6-8.6-11.1-12.8-13.2-3.8-1.9-13.7-4.1-17.9-3.9-1.4.1-4.6.5-7 1zM102.8 146.4l-.3 40.4-2.4 2.6c-2 2.2-3.3 2.6-7.7 2.6-4.5 0-5.9-.5-8.8-3.1-1.9-1.6-3.8-3.9-4.1-5-.4-1-1.1-1.9-1.7-1.9-.8 0-15.3 8.3-16.7 9.6-1.1 1 2.8 7.1 7.5 11.3 7.1 6.5 13.2 8.6 24.9 8.6 7.6 0 9.9-.5 14.5-2.6 6.9-3.3 10.6-6.9 13.9-13.9l2.6-5.5.3-41.8.3-41.7h-22l-.3 40.4z"/></svg>